<?xml version="1.0" encoding="UTF-8"?>
<!DOCTYPE svg PUBLIC "-//W3C//DTD SVG 1.1//EN" "http://www.w3.org/Graphics/SVG/1.1/DTD/svg11.dtd">
<!-- Creator: CorelDRAW -->
<svg xmlns="http://www.w3.org/2000/svg" xml:space="preserve" width="2.66666in" height="2.66666in" version="1.1" style="shape-rendering:geometricPrecision; text-rendering:geometricPrecision; image-rendering:optimizeQuality; fill-rule:evenodd; clip-rule:evenodd"
viewBox="0 0 2666.66 2666.66"
 xmlns:xlink="http://www.w3.org/1999/xlink"
 xmlns:xodm="http://www.corel.com/coreldraw/odm/2003">
 <defs>
  <style type="text/css">
   <![CDATA[
    .fil1 {fill:black}
    .fil5 {fill:#4A5254}
    .fil3 {fill:#5684B9}
    .fil2 {fill:#77B5FE}
    .fil4 {fill:#C2E6F7}
    .fil0 {fill:#E2F0CB}
   ]]>
  </style>
 </defs>
 <g id="Layer_x0020_1">
  <metadata id="CorelCorpID_0Corel-Layer"/>
  <circle class="fil0" cx="1333.33" cy="1333.33" r="1333.33"/>
  <path class="fil1" d="M1155.24 1691.13c-85.65,0 -155.35,-69.69 -155.35,-155.35 0,-75.66 89.59,-171.08 139.15,-239.5 20.78,-28.7 46.56,18.92 62.19,38.87 48.7,62.15 109.33,139.5 109.33,200.61 0,85.67 -69.67,155.36 -155.33,155.36zm0 -349.88c-43.56,56.26 -115.33,141.93 -115.33,194.54 0,63.59 51.75,115.33 115.35,115.33 63.6,0 115.33,-51.74 115.33,-115.33 0,-52.57 -71.76,-138.33 -115.35,-194.54z"/>
  <path class="fil1" d="M1162.01 1622.09c-89.85,0 -123.65,-117.8 -77.79,-117.8 11.04,0 20,8.97 20,20 0,31.87 25.93,57.79 57.79,57.79 26.34,0 26.31,40.02 0,40.02z"/>
  <path class="fil1" d="M1738.28 1856.2l-99.34 0c-26.33,0 -26.32,-40 0,-40l79.34 0 0 -132.4 -79.34 0c-26.33,0 -26.32,-40 0,-40l99.34 0c11.04,0 20,8.97 20,20l0 172.41c0.02,11.03 -8.95,19.99 -20,19.99z"/>
  <path class="fil1" d="M1973.44 1285.54l-185.85 0c-18.28,0 -33.18,-14.88 -33.18,-33.16l0 -462.2c0,-18.28 14.89,-33.15 33.18,-33.15l185.85 0c18.28,0 33.17,14.88 33.17,33.16 0,156.69 12.89,144.17 -52.62,144.17l0 249.5c59.39,0 52.63,-3.62 52.63,68.53 0,18.27 -14.89,33.15 -33.17,33.15zm-179.02 -40l172.16 0 0 -21.68c-21.72,0 -52.63,5.32 -52.63,-20l0 -289.5c0,-25.32 30.93,-20 52.63,-20l0 -97.35 -172.16 0 0 448.52z"/>
  <path class="fil1" d="M1986.6 1223.86c-26.33,0 -26.32,-40 0,-40 51.11,0 92.68,-41.57 92.68,-92.66l0 -111.92 -101.07 -46.76c-23.88,-11.05 -7.12,-47.38 16.8,-36.3l99.51 46.06c7.7,3.54 24.78,11.42 24.78,31.3l0 117.61c-0,73.15 -59.53,132.67 -132.69,132.67z"/>
  <path class="fil1" d="M2009.33 1117.75l-82.43 -29.74c-24.62,-9.29 -10.54,-46.76 14.13,-37.42l50.35 19.02c-0.71,-8.18 -2.35,-15.75 -3.74,-20.82l-68.06 -70.37c-18.3,-18.93 10.44,-46.72 28.75,-27.8 11.11,11.48 72.84,72.34 75.91,81.18 1.32,3.82 23.4,85.96 -14.91,85.96z"/>
  <path class="fil1" d="M1916.67 797.02c-41.28,0 -84.76,8.35 -84.76,-20l0 -141.39c0,-4.58 1.57,-9.03 4.46,-12.58 132.87,-163.79 114.32,-171.44 163.45,-54.59 2.92,6.94 1.69,14.93 -3.17,20.67l-59.97 70.87 0 117.03c-0.01,11.05 -8.96,19.99 -20.01,19.99zm-44.76 -40l24.75 0c0,-133.09 -15.86,-92.93 61.53,-184.36l-10.1 -24 -76.18 94.06 0 114.3z"/>
  <path class="fil1" d="M1880.5 1755.32l-142.22 0c-26.33,0 -26.32,-40 0,-40l122.22 0 0 -449.78c0,-26.33 40,-26.33 40,0l0 469.78c0.01,11.03 -8.96,20 -20,20z"/>
  <path class="fil1" d="M1638.94 1966.35l-967.4 0c-11.04,0 -20,-8.97 -20,-20l0 -1350.56c0,-63.85 51.93,-115.78 115.78,-115.78l775.86 0c63.85,0 115.78,51.94 115.78,115.78l0 1350.54c-0.02,11.06 -8.98,20.02 -20.02,20.02zm-947.4 -40.02l927.4 0 0 -1330.54c0,-41.79 -33.98,-75.79 -75.76,-75.79l-775.87 -0.01c-41.78,0 -75.78,34 -75.78,75.79l0 1330.54z"/>
  <path class="fil1" d="M1743.11 2186.65l-1175.74 0c-11.04,0 -20,-8.97 -20,-20l0 -182c0,-32.15 26.15,-58.32 58.3,-58.32l1099.12 0c32.15,0 58.32,26.17 58.32,58.32l0 182c0,11.04 -8.96,20 -20,20zm-1155.74 -40l1135.74 0 0 -161.98c0,-10.11 -8.21,-18.3 -18.31,-18.3l-1099.13 -0c-10.1,0 -18.3,8.21 -18.3,18.3l0 161.99z"/>
  <path class="fil1" d="M1743.1 2088.47l-587.86 0c-26.32,0 -26.32,-40 0,-40l587.86 0c26.33,0 26.33,40 0,40z"/>
  <path class="fil1" d="M1504.86 1052.81l-699.24 0c-11.04,0 -20,-8.96 -20,-20l0 -378.34c0,-11.04 8.96,-20 20,-20l699.22 0c11.04,0 20,8.96 20,20l0 378.34c0.02,11.06 -8.94,20 -19.98,20zm-679.24 -40l659.22 0 0 -338.34 -659.22 0 0 338.34z"/>
  <path class="fil1" d="M1427.02 977.39l-543.57 0c-11.04,0 -20,-8.96 -20,-20l0 -227.5c0,-11.04 8.96,-20 20,-20l543.57 0c11.04,0 20,8.96 20,20l0 227.5c0.02,11.06 -8.95,20 -20,20zm-523.57 -40l503.57 0 0 -187.5 -503.57 0 0 187.5z"/>
  <path class="fil1" d="M1005.59 977.39c-11.04,0 -20,-8.96 -20,-20l0 -227.5c0,-26.33 40,-26.33 40,0l0 227.5c0,11.06 -8.94,20 -20,20z"/>
  <path class="fil1" d="M1155.24 977.39c-11.04,0 -20,-8.96 -20,-20l0 -227.5c0,-26.33 40,-26.33 40,0l0 227.5c0,11.06 -8.94,20 -20,20z"/>
  <path class="fil1" d="M1304.89 977.39c-11.04,0 -20,-8.96 -20,-20l0 -227.5c0,-26.33 40,-26.33 40,0l0 227.5c0,11.06 -8.96,20 -20,20z"/>
  <path class="fil1" d="M1638.94 1801.54l-967.4 0c-26.33,0 -26.33,-40 0,-40l967.4 0c26.32,0 26.32,40 0,40zm0 -583.92l-967.4 0c-26.33,0 -26.33,-40 0,-40l967.4 0c26.33,0 26.33,40 0,40z"/>
  <path class="fil2" d="M691.54 1761.54l927.4 0 0 -543.92 -927.41 0 0 543.92zm619.02 -225.78c0,85.67 -69.67,155.36 -155.33,155.36 -85.65,0 -155.35,-69.69 -155.35,-155.35 0,-75.66 89.59,-171.08 139.15,-239.5 20.78,-28.7 46.56,18.92 62.19,38.87 48.7,62.15 109.33,139.5 109.33,200.61z"/>
  <path class="fil3" d="M1104.22 1524.29c0,31.87 25.93,57.79 57.79,57.79 26.34,0 26.31,40.02 0,40.02 -89.85,0 -123.65,-117.8 -77.79,-117.8 11.04,0 20,8.97 20,20zm-64.32 11.5c0,63.59 51.75,115.33 115.35,115.33 63.6,0 115.33,-51.74 115.33,-115.33 0,-52.57 -71.76,-138.33 -115.35,-194.54 -43.56,56.26 -115.33,141.93 -115.33,194.54z"/>
  <path class="fil2" d="M691.54 1177.63l927.41 0 0 -581.83c0,-41.79 -33.98,-75.79 -75.76,-75.79l-775.87 -0.01c-41.78,0 -75.78,34 -75.78,75.79l0 581.84zm813.32 -124.82l-699.24 0c-11.04,0 -20,-8.96 -20,-20l0 -378.34c0,-11.04 8.96,-20 20,-20l699.22 0c11.04,0 20,8.96 20,20l0 378.34c0.02,11.06 -8.94,20 -19.98,20z"/>
  <path class="fil4" d="M825.62 1012.81l659.22 0 0 -338.34 -659.22 0 0 338.34zm479.26 -35.41l-421.43 0c-11.04,0 -20,-8.96 -20,-20l0 -227.5c0,-11.04 8.96,-20 20,-20l543.57 0c11.04,0 20,8.96 20,20l0 227.5c0.02,11.06 -8.95,20 -20,20l-122.14 0z"/>
  <polygon class="fil3" points="1324.89,749.9 1324.89,937.4 1407.02,937.4 1407.02,749.9 "/>
  <polygon class="fil3" points="1284.89,937.4 1284.89,749.9 1175.24,749.9 1175.24,937.4 "/>
  <polygon class="fil3" points="1135.24,937.4 1135.24,749.9 1025.59,749.9 1025.59,937.4 "/>
  <polygon class="fil3" points="985.59,937.4 985.59,749.9 903.45,749.9 903.45,937.4 "/>
  <path class="fil3" d="M1794.42 797.02l0 448.52 172.16 0 0 -21.68c-21.72,0 -52.63,5.32 -52.63,-20l0 -289.5c0,-25.32 30.93,-20 52.63,-20l0 -97.35 -172.16 0z"/>
  <path class="fil5" d="M1953.99 1014l0 41.49 37.39 14.12c-2.32,-26.81 -7.26,-24.47 -37.39,-55.61z"/>
  <path class="fil5" d="M1896.66 757.02c0,-25.74 -4.39,-106.47 4.73,-117.26l56.8 -67.1 -10.1 -24 -76.18 94.06 0 114.3 24.75 0z"/>
  <polygon class="fil3" points="1718.28,1816.2 1718.28,1683.8 1658.96,1683.8 1658.96,1816.2 "/>
  <polygon class="fil2" points="1618.94,1801.54 691.54,1801.54 691.54,1926.33 1618.94,1926.33 "/>
  <path class="fil3" d="M1638.94 1966.35l-1033.26 0.01c-10.1,0 -18.3,8.21 -18.3,18.3l0 161.99 1135.74 0 0 -58.18 -567.88 0c-26.32,0 -26.32,-40 0,-40l567.88 0c0,-95.7 13.65,-82.1 -84.18,-82.13z"/>
 </g>
</svg>
